<svg width="25" height="25" viewBox="0 0 25 25" fill="none" xmlns="http://www.w3.org/2000/svg">
  <path fill-rule="evenodd" clip-rule="evenodd"
    d="M4.50396 7.03745H20.504C20.8222 7.03745 21.1274 6.91102 21.3525 6.68598C21.5775 6.46094 21.704 6.15571 21.704 5.83745C21.704 5.51919 21.5775 5.21397 21.3525 4.98892C21.1274 4.76388 20.8222 4.63745 20.504 4.63745H4.50396C4.1857 4.63745 3.88047 4.76388 3.65543 4.98892C3.43038 5.21397 3.30396 5.51919 3.30396 5.83745C3.30396 6.15571 3.43038 6.46094 3.65543 6.68598C3.88047 6.91102 4.1857 7.03745 4.50396 7.03745ZM20.504 11.6375H4.50396C4.1857 11.6375 3.88047 11.7639 3.65543 11.9889C3.43038 12.214 3.30396 12.5192 3.30396 12.8375C3.30396 13.1557 3.43038 13.4609 3.65543 13.686C3.88047 13.911 4.1857 14.0375 4.50396 14.0375H20.504C20.8222 14.0375 21.1274 13.911 21.3525 13.686C21.5775 13.4609 21.704 13.1557 21.704 12.8375C21.704 12.5192 21.5775 12.214 21.3525 11.9889C21.1274 11.7639 20.8222 11.6375 20.504 11.6375ZM20.504 18.6375H4.50396C4.34637 18.6375 4.19033 18.6685 4.04473 18.7288C3.89914 18.7891 3.76686 18.8775 3.65543 18.9889C3.544 19.1004 3.45561 19.2326 3.3953 19.3782C3.33499 19.5238 3.30396 19.6799 3.30396 19.8375C3.30396 19.995 3.33499 20.1511 3.3953 20.2967C3.45561 20.4423 3.544 20.5745 3.65543 20.686C3.76686 20.7974 3.89914 20.8858 4.04473 20.9461C4.19033 21.0064 4.34637 21.0375 4.50396 21.0375H20.504C20.6615 21.0375 20.8176 21.0064 20.9632 20.9461C21.1088 20.8858 21.2411 20.7974 21.3525 20.686C21.4639 20.5745 21.5523 20.4423 21.6126 20.2967C21.6729 20.1511 21.704 19.995 21.704 19.8375C21.704 19.6799 21.6729 19.5238 21.6126 19.3782C21.5523 19.2326 21.4639 19.1004 21.3525 18.9889C21.2411 18.8775 21.1088 18.7891 20.9632 18.7288C20.8176 18.6685 20.6615 18.6375 20.504 18.6375Z"
    fill="#B0B8C1" />
</svg>