<svg width="36" height="37" viewBox="0 0 36 37" fill="none" xmlns="http://www.w3.org/2000/svg">
  <g clip-path="url(#clip0_6_678)">
    <g clip-path="url(#clip1_6_678)">
      <g opacity="0.7">
        <path fill-rule="evenodd" clip-rule="evenodd"
          d="M35.027 18.9393C35.027 28.6116 27.1858 36.4528 17.5135 36.4528C7.84119 36.4528 0 28.6116 0 18.9393C0 9.26697 7.84119 1.42578 17.5135 1.42578C27.1858 1.42578 35.027 9.26697 35.027 18.9393Z"
          fill="#8b95a1" />
        <path fill-rule="evenodd" clip-rule="evenodd"
          d="M15.8077 20.3524V23.2188H18.2897C19.6626 23.2188 20.2687 22.6933 20.2687 21.7651C20.2687 20.8369 19.7638 20.3524 18.2294 20.3524H15.8077ZM15.8077 14.641V17.2642H18.3705C19.6227 17.2642 20.0868 16.6998 20.0868 15.9117C20.0868 15.1042 19.5818 14.64 18.351 14.64L15.8077 14.641ZM12.376 11.5723H18.2089C21.7622 11.5723 23.5788 13.0249 23.5788 15.7901C23.5788 17.1231 23.0339 18.0717 22.0853 18.6769C23.2149 19.323 23.8609 20.3524 23.8609 21.8469C23.8609 24.9146 21.7418 26.307 18.2089 26.307H12.376V11.5723Z"
          fill="#F1F1F2" />
      </g>
    </g>
  </g>
  <defs>
    <clipPath id="clip0_6_678">
      <rect width="36" height="36" fill="white" transform="translate(0 0.939453)" />
    </clipPath>
    <clipPath id="clip1_6_678">
      <rect width="36" height="35.027" fill="white" transform="translate(0 1.42578)" />
    </clipPath>
  </defs>
</svg>