<svg width="36" height="37" viewBox="0 0 36 37" fill="none" xmlns="http://www.w3.org/2000/svg">
<g opacity="0.7" clip-path="url(#clip0_6_695)">
<g clip-path="url(#clip1_6_695)">
<g clip-path="url(#clip2_6_695)">
<g opacity="0.7">
<path fill-rule="evenodd" clip-rule="evenodd" d="M35.027 18.9393C35.027 28.6116 27.1858 36.4528 17.5135 36.4528C7.84119 36.4528 0 28.6116 0 18.9393C0 9.26697 7.84119 1.42578 17.5135 1.42578C27.1858 1.42578 35.027 9.26697 35.027 18.9393Z" fill="#6B7684"/>
<path fill-rule="evenodd" clip-rule="evenodd" d="M17.5136 9.92969C15.0666 9.92969 14.7601 9.93942 13.7988 9.98417C12.8404 10.028 12.1847 10.1797 11.6116 10.4026C11.02 10.6331 10.517 10.9416 10.0159 11.4417C9.5158 11.9428 9.20737 12.4458 8.97677 13.0374C8.75396 13.6114 8.60218 14.2662 8.55839 15.2246C8.51461 16.1859 8.50391 16.4924 8.50391 18.9394C8.50391 21.3864 8.51364 21.6929 8.55839 22.6542C8.60218 23.6136 8.75396 24.2684 8.97677 24.8415C9.20737 25.434 9.5158 25.9361 10.0159 26.4371C10.517 26.9382 11.02 27.2457 11.6116 27.4763C12.1856 27.6991 12.8404 27.8509 13.7988 27.8947C14.7601 27.9384 15.0666 27.9491 17.5136 27.9491C19.9607 27.9491 20.2672 27.9394 21.2284 27.8947C22.1868 27.8509 22.8426 27.6991 23.4157 27.4763C24.0073 27.2457 24.5103 26.9382 25.0114 26.4371C25.5115 25.9361 25.8199 25.434 26.0505 24.8415C26.2733 24.2674 26.4251 23.6136 26.4689 22.6542C26.5127 21.6929 26.5234 21.3864 26.5234 18.9394C26.5234 16.4924 26.5136 16.1859 26.4689 15.2246C26.4251 14.2662 26.2733 13.6104 26.0505 13.0374C25.8199 12.4458 25.5115 11.9428 25.0114 11.4417C24.5103 10.9416 24.0073 10.6331 23.4157 10.4026C22.8416 10.1797 22.1868 10.028 21.2284 9.98417C20.2672 9.93942 19.9607 9.92969 17.5136 9.92969ZM17.5136 11.5536C19.9188 11.5536 20.2039 11.5633 21.1545 11.6061C22.0331 11.645 22.5099 11.7929 22.828 11.9155C23.2474 12.079 23.548 12.2746 23.8633 12.5898C24.1785 12.905 24.3741 13.2057 24.5375 13.626C24.6601 13.9432 24.807 14.42 24.8469 15.2995C24.8907 16.2491 24.8995 16.5342 24.8995 18.9394C24.8995 21.3456 24.8907 21.6297 24.8469 22.5803C24.808 23.4589 24.6601 23.9356 24.5375 24.2538C24.3741 24.6731 24.1775 24.9738 23.8633 25.289C23.548 25.6043 23.2474 25.7999 22.827 25.9633C22.5099 26.0859 22.0331 26.2328 21.1535 26.2727C20.2049 26.3165 19.9198 26.3253 17.5136 26.3253C15.1075 26.3253 14.8224 26.3165 13.8728 26.2727C12.9942 26.2338 12.5174 26.0859 12.1993 25.9633C11.7799 25.7999 11.4793 25.6033 11.164 25.289C10.8488 24.9738 10.6532 24.6731 10.4897 24.2528C10.3671 23.9356 10.2202 23.4589 10.1803 22.5793C10.1366 21.6297 10.1278 21.3456 10.1278 18.9394C10.1278 16.5342 10.1366 16.2491 10.1803 15.2986C10.2193 14.42 10.3671 13.9432 10.4897 13.625C10.6532 13.2057 10.8497 12.905 11.164 12.5898C11.4793 12.2746 11.7799 12.079 12.2002 11.9155C12.5174 11.7929 12.9942 11.646 13.8737 11.6061C14.8234 11.5623 15.1084 11.5536 17.5136 11.5536Z" fill="#F1F1F2"/>
<path fill-rule="evenodd" clip-rule="evenodd" d="M17.5137 21.9428C15.8548 21.9428 14.5101 20.5981 14.5101 18.9392C14.5101 17.2803 15.8548 15.9356 17.5137 15.9356C19.1726 15.9356 20.5173 17.2803 20.5173 18.9392C20.5173 20.5981 19.1726 21.9428 17.5137 21.9428ZM17.5137 14.3127C14.9587 14.3127 12.8872 16.3842 12.8872 18.9392C12.8872 21.4942 14.9587 23.5657 17.5137 23.5657C20.0687 23.5657 22.1402 21.4942 22.1402 18.9392C22.1402 16.3842 20.0687 14.3127 17.5137 14.3127ZM23.4041 14.1298C23.4041 14.7272 22.9205 15.2108 22.3231 15.2108C21.7257 15.2108 21.2421 14.7272 21.2421 14.1308C21.2421 13.5324 21.7257 13.0488 22.3221 13.0488C22.9205 13.0488 23.4041 13.5324 23.4041 14.1298Z" fill="#F1F1F2"/>
</g>
</g>
</g>
</g>
<defs>
<clipPath id="clip0_6_695">
<rect width="36" height="36" fill="white" transform="translate(0 0.939453)"/>
</clipPath>
<clipPath id="clip1_6_695">
<rect width="36" height="36" fill="white" transform="translate(0 0.939453)"/>
</clipPath>
<clipPath id="clip2_6_695">
<rect width="36" height="35.027" fill="white" transform="translate(0 1.42578)"/>
</clipPath>
</defs>
</svg>
