<svg width="36" height="37" viewBox="0 0 36 37" fill="none" xmlns="http://www.w3.org/2000/svg">
  <g opacity="0.7" clip-path="url(#clip0_6_689)">
    <g clip-path="url(#clip1_6_689)">
      <g clip-path="url(#clip2_6_689)">
        <g opacity="0.7">
          <path fill-rule="evenodd" clip-rule="evenodd"
            d="M35.027 18.9393C35.027 28.6116 27.1858 36.4528 17.5135 36.4528C7.84119 36.4528 0 28.6116 0 18.9393C0 9.26697 7.84119 1.42578 17.5135 1.42578C27.1858 1.42578 35.027 9.26697 35.027 18.9393Z"
            fill="#6B7684" />
          <path fill-rule="evenodd" clip-rule="evenodd"
            d="M14.6762 27.3739C21.6952 27.3739 25.5336 21.5585 25.5336 16.5165C25.5336 16.3511 25.5297 16.1867 25.5219 16.0232C26.2672 15.4842 26.9152 14.8128 27.426 14.0481C26.742 14.3517 26.0055 14.556 25.2349 14.6484C26.023 14.1755 26.6272 13.4283 26.9123 12.5371C26.1748 12.9749 25.3584 13.2921 24.4896 13.4633C23.7929 12.7219 22.8015 12.2578 21.704 12.2578C19.5965 12.2578 17.888 13.9673 17.888 16.0738C17.888 16.3735 17.921 16.6644 17.9862 16.9437C14.8153 16.7841 12.0024 15.2653 10.1217 12.9564C9.79282 13.5207 9.60407 14.1755 9.60407 14.8751C9.60407 16.1984 10.2783 17.3669 11.3029 18.0509C10.6763 18.0314 10.0886 17.8602 9.5739 17.5741V17.6228C9.5739 19.4714 10.8894 21.0136 12.6349 21.3639C12.3138 21.4514 11.9771 21.4981 11.6288 21.4981C11.3827 21.4981 11.1443 21.4728 10.9117 21.4291C11.3982 22.9449 12.8061 24.0483 14.4767 24.0794C13.17 25.103 11.5247 25.7121 9.73736 25.7121C9.42893 25.7121 9.12536 25.6946 8.82666 25.6595C10.5157 26.7425 12.521 27.3739 14.6762 27.3739Z"
            fill="white" />
        </g>
      </g>
    </g>
  </g>
  <defs>
    <clipPath id="clip0_6_689">
      <rect width="36" height="36" fill="white" transform="translate(0 0.939453)" />
    </clipPath>
    <clipPath id="clip1_6_689">
      <rect width="36" height="36" fill="white" transform="translate(0 0.939453)" />
    </clipPath>
    <clipPath id="clip2_6_689">
      <rect width="36" height="35.027" fill="white" transform="translate(0 1.42578)" />
    </clipPath>
  </defs>
</svg>